<?xml version="1.0" encoding="iso-8859-1"?>
<!-- Uploaded to: SVG Repo, www.svgrepo.com, Generator: SVG Repo Mixer Tools -->
<svg fill="#000000" version="1.1" id="Layer_1" xmlns="http://www.w3.org/2000/svg" xmlns:xlink="http://www.w3.org/1999/xlink" 
	 viewBox="0 0 512.001 512.001" xml:space="preserve">
<g>
	<g>
		<rect x="4.231" y="288.308" transform="matrix(0.5 -0.866 0.866 0.5 -251.7952 182.927)" width="56.587" height="42.44"/>
	</g>
</g>
<g>
	<g>
		<path d="M483.707,15.499H299.795v282.941h212.206V43.793C512.001,28.166,499.334,15.499,483.707,15.499z"/>
	</g>
</g>
<g>
	<g>
		<rect x="299.791" y="340.885" width="212.206" height="56.588"/>
	</g>
</g>
<g>
	<g>
		<rect x="299.791" y="439.914" width="42.441" height="56.588"/>
	</g>
</g>
<g>
	<g>
		<rect x="384.673" y="439.914" width="42.441" height="56.588"/>
	</g>
</g>
<g>
	<g>
		<rect x="469.556" y="439.914" width="42.441" height="56.588"/>
	</g>
</g>
<g>
	<g>
		<rect x="77.737" y="330.747" transform="matrix(0.5 -0.866 0.866 0.5 -251.7962 267.8045)" width="56.587" height="42.44"/>
	</g>
</g>
<g>
	<g>
		<rect x="151.239" y="373.191" transform="matrix(0.5 -0.866 0.866 0.5 -251.8033 352.6798)" width="56.587" height="42.44"/>
	</g>
</g>
<g>
	<g>
		<polygon points="77.81,188.664 49.516,237.671 233.291,343.774 257.354,302.095 257.354,292.324 		"/>
	</g>
</g>
<g>
	<g>
		<path d="M251.298,15.499c-45.488,0-87.521,24.268-110.265,63.662L99.03,151.909l158.324,91.408V15.499H251.298z"/>
	</g>
</g>
</svg>